<?xml version="1.0" encoding="UTF-8"?>
<svg width="44px" height="44px" viewBox="0 0 44 44" version="1.1" xmlns="http://www.w3.org/2000/svg" xmlns:xlink="http://www.w3.org/1999/xlink">
    <!-- Generator: Sketch 57.1 (83088) - https://sketch.com -->
    <title>Group</title>
    <desc>Created with Sketch.</desc>
    <g id="Page-1" stroke="none" stroke-width="1" fill="none" fill-rule="evenodd">
        <g id="Group">
            <rect id="Rectangle" x="0" y="0" width="44" height="44"></rect>
            <path d="M14.8722296,2.07168062e-16 C16.6552671,-1.2037061e-16 17.3018396,0.185651222 17.9536914,0.534265408 C18.6055433,0.882879593 19.1171204,1.39445674 19.4657346,2.04630859 C19.8143488,2.69816044 20,3.34473292 20,5.1277704 L20,14.8722296 C20,16.6552671 19.8143488,17.3018396 19.4657346,17.9536914 C19.1171204,18.6055433 18.6055433,19.1171204 17.9536914,19.4657346 C17.3018396,19.8143488 16.6552671,20 14.8722296,20 L5.1277704,20 C3.34473292,20 2.69816044,19.8143488 2.04630859,19.4657346 C1.39445674,19.1171204 0.882879593,18.6055433 0.534265408,17.9536914 C0.185651222,17.3018396 8.02470732e-17,16.6552671 -1.38112041e-16,14.8722296 L1.38112041e-16,5.1277704 C-8.02470732e-17,3.34473292 0.185651222,2.69816044 0.534265408,2.04630859 C0.882879593,1.39445674 1.39445674,0.882879593 2.04630859,0.534265408 C2.69816044,0.185651222 3.34473292,1.2037061e-16 5.1277704,-2.07168062e-16 L14.8722296,2.07168062e-16 Z M11.4361148,6 L8.5638852,6 C7.67236646,6 7.34908022,6.09282561 7.0231543,6.2671327 C6.69722837,6.4414398 6.4414398,6.69722837 6.2671327,7.0231543 C6.09282561,7.34908022 6,7.67236646 6,8.5638852 L6,8.5638852 L6,11.4361148 C6,12.3276335 6.09282561,12.6509198 6.2671327,12.9768457 C6.4414398,13.3027716 6.69722837,13.5585602 7.0231543,13.7328673 C7.34908022,13.9071744 7.67236646,14 8.5638852,14 L8.5638852,14 L11.4361148,14 C12.3276335,14 12.6509198,13.9071744 12.9768457,13.7328673 C13.3027716,13.5585602 13.5585602,13.3027716 13.7328673,12.9768457 C13.9071744,12.6509198 14,12.3276335 14,11.4361148 L14,11.4361148 L14,8.5638852 C14,7.67236646 13.9071744,7.34908022 13.7328673,7.0231543 C13.5585602,6.69722837 13.3027716,6.4414398 12.9768457,6.2671327 C12.6509198,6.09282561 12.3276335,6 11.4361148,6 L11.4361148,6 Z" id="Combined-Shape" fill="#4284F3"></path>
            <path d="M14.8722296,24 C16.6552671,24 17.3018396,24.1856512 17.9536914,24.5342654 C18.6055433,24.8828796 19.1171204,25.3944567 19.4657346,26.0463086 C19.8143488,26.6981604 20,27.3447329 20,29.1277704 L20,38.8722296 C20,40.6552671 19.8143488,41.3018396 19.4657346,41.9536914 C19.1171204,42.6055433 18.6055433,43.1171204 17.9536914,43.4657346 C17.3018396,43.8143488 16.6552671,44 14.8722296,44 L5.1277704,44 C3.34473292,44 2.69816044,43.8143488 2.04630859,43.4657346 C1.39445674,43.1171204 0.882879593,42.6055433 0.534265408,41.9536914 C0.185651222,41.3018396 8.02470732e-17,40.6552671 -1.38112041e-16,38.8722296 L1.38112041e-16,29.1277704 C-8.02470732e-17,27.3447329 0.185651222,26.6981604 0.534265408,26.0463086 C0.882879593,25.3944567 1.39445674,24.8828796 2.04630859,24.5342654 C2.69816044,24.1856512 3.34473292,24 5.1277704,24 L14.8722296,24 Z M11.4361148,30 L8.5638852,30 C7.67236646,30 7.34908022,30.0928256 7.0231543,30.2671327 C6.69722837,30.4414398 6.4414398,30.6972284 6.2671327,31.0231543 C6.09282561,31.3490802 6,31.6723665 6,32.5638852 L6,32.5638852 L6,35.4361148 C6,36.3276335 6.09282561,36.6509198 6.2671327,36.9768457 C6.4414398,37.3027716 6.69722837,37.5585602 7.0231543,37.7328673 C7.34908022,37.9071744 7.67236646,38 8.5638852,38 L8.5638852,38 L11.4361148,38 C12.3276335,38 12.6509198,37.9071744 12.9768457,37.7328673 C13.3027716,37.5585602 13.5585602,37.3027716 13.7328673,36.9768457 C13.9071744,36.6509198 14,36.3276335 14,35.4361148 L14,35.4361148 L14,32.5638852 C14,31.6723665 13.9071744,31.3490802 13.7328673,31.0231543 C13.5585602,30.6972284 13.3027716,30.4414398 12.9768457,30.2671327 C12.6509198,30.0928256 12.3276335,30 11.4361148,30 L11.4361148,30 Z" id="Combined-Shape" fill="#FABC05"></path>
            <path d="M38.8722296,2.07168062e-16 C40.6552671,-1.2037061e-16 41.3018396,0.185651222 41.9536914,0.534265408 C42.6055433,0.882879593 43.1171204,1.39445674 43.4657346,2.04630859 C43.8143488,2.69816044 44,3.34473292 44,5.1277704 L44,14.8722296 C44,16.6552671 43.8143488,17.3018396 43.4657346,17.9536914 C43.1171204,18.6055433 42.6055433,19.1171204 41.9536914,19.4657346 C41.3018396,19.8143488 40.6552671,20 38.8722296,20 L29.1277704,20 C27.3447329,20 26.6981604,19.8143488 26.0463086,19.4657346 C25.3944567,19.1171204 24.8828796,18.6055433 24.5342654,17.9536914 C24.1856512,17.3018396 24,16.6552671 24,14.8722296 L24,5.1277704 C24,3.34473292 24.1856512,2.69816044 24.5342654,2.04630859 C24.8828796,1.39445674 25.3944567,0.882879593 26.0463086,0.534265408 C26.6981604,0.185651222 27.3447329,1.2037061e-16 29.1277704,-2.07168062e-16 L38.8722296,2.07168062e-16 Z M35.4361148,6 L32.5638852,6 C31.6723665,6 31.3490802,6.09282561 31.0231543,6.2671327 C30.6972284,6.4414398 30.4414398,6.69722837 30.2671327,7.0231543 C30.0928256,7.34908022 30,7.67236646 30,8.5638852 L30,8.5638852 L30,11.4361148 C30,12.3276335 30.0928256,12.6509198 30.2671327,12.9768457 C30.4414398,13.3027716 30.6972284,13.5585602 31.0231543,13.7328673 C31.3490802,13.9071744 31.6723665,14 32.5638852,14 L32.5638852,14 L35.4361148,14 C36.3276335,14 36.6509198,13.9071744 36.9768457,13.7328673 C37.3027716,13.5585602 37.5585602,13.3027716 37.7328673,12.9768457 C37.9071744,12.6509198 38,12.3276335 38,11.4361148 L38,11.4361148 L38,8.5638852 C38,7.67236646 37.9071744,7.34908022 37.7328673,7.0231543 C37.5585602,6.69722837 37.3027716,6.4414398 36.9768457,6.2671327 C36.6509198,6.09282561 36.3276335,6 35.4361148,6 L35.4361148,6 Z" id="Combined-Shape" fill="#EA4335"></path>
            <path d="M29.1277704,24 L38.8722296,24 C40.6552671,24 41.3018396,24.1856512 41.9536914,24.5342654 C42.6055433,24.8828796 43.1171204,25.3944567 43.4657346,26.0463086 C43.8143488,26.6981604 44,27.3447329 44,29.1277704 L44,38.8722296 C44,40.6552671 43.8143488,41.3018396 43.4657346,41.9536914 C43.1171204,42.6055433 42.6055433,43.1171204 41.9536914,43.4657346 C41.3018396,43.8143488 40.6552671,44 38.8722296,44 L29.1277704,44 C27.3447329,44 26.6981604,43.8143488 26.0463086,43.4657346 C25.3944567,43.1171204 24.8828796,42.6055433 24.5342654,41.9536914 C24.1856512,41.3018396 24,40.6552671 24,38.8722296 L24,29.1277704 C24,27.3447329 24.1856512,26.6981604 24.5342654,26.0463086 C24.8828796,25.3944567 25.3944567,24.8828796 26.0463086,24.5342654 C26.6981604,24.1856512 27.3447329,24 29.1277704,24 Z" id="Rectangle-Copy-2" fill="#DDDDDD"></path>
        </g>
    </g>
</svg>